<?xml version="1.0" encoding="UTF-8" standalone="no"?>
<svg
   xmlns:dc="http://purl.org/dc/elements/1.1/"
   xmlns:cc="http://creativecommons.org/ns#"
   xmlns:rdf="http://www.w3.org/1999/02/22-rdf-syntax-ns#"
   xmlns:svg="http://www.w3.org/2000/svg"
   xmlns="http://www.w3.org/2000/svg"
   viewBox="0 0 480 480"
   height="480"
   width="480"
   xml:space="preserve"
   id="svg2"
   version="1.1"><metadata
     id="metadata8"><rdf:RDF><cc:Work
         rdf:about=""><dc:format>image/svg+xml</dc:format><dc:type
           rdf:resource="http://purl.org/dc/dcmitype/StillImage" /></cc:Work></rdf:RDF></metadata><defs
     id="defs6" /><g
     transform="matrix(1.3333333,0,0,-1.3333333,0,480)"
     id="g10"><g
       transform="scale(0.1)"
       id="g12"><path
         id="path14"
         style="fill:#006838;fill-opacity:1;fill-rule:nonzero;stroke:none"
         d="m 2060.81,2031.81 h 117.37 l 163.53,157.14 -118.35,0.02 z m -679.57,157.16 -118.36,-0.02 163.52,-157.14 h 117.38 z m 781.31,223.29 -214.53,-367.26 235.13,224.07 h 116.91 l 144.8,143.19 z m -330.95,-331.82 175.31,375.28 h 180.89 l 92.15,147.43 h -366 z M 1423.31,2269.07 1658.5,2045 1443.95,2412.26 h -282.34 l 144.81,-143.19 z m 175.34,186.65 175.27,-375.28 -82.3,522.71 h -366.01 l 92.15,-147.43 z m 325.59,271.24 -121.48,118.28 -121.45,-118.28 121.45,-118.33 z M 912.813,1911.6 l -69.063,0.21 v -8.24 c 30.293,-3.29 31.992,-3.95 31.992,-34.96 v -130.38 h -0.679 l -133.032,173.5 -131.269,0.08 v -9.22 c 29.25,-2.31 34.019,-3.95 34.019,-34.65 v -79.86 c 0,-47.87 -18.031,-86.49 -61.23,-86.49 -1.418,0 -8.602,0.04 -10,0.12 -32.078,2.06 -53.949,27.95 -53.949,74.47 v 98.69 c 0,26.09 4.75,26.62 31.968,28.6 v 8.34 c -8.16,0 -85.39,-0.06 -94.578,-0.06 v -8.28 c 24.16,-1.3 28.578,-2.51 28.578,-24.65 v -98.37 c 0,-64.35 38.782,-90.42 81.313,-90.42 2.269,0 10.258,0.06 12.43,0.15 54.718,2.71 77.386,39.07 77.386,95.92 v 79.87 c 0,29.35 11.383,37.93 31.864,37.93 20.507,0 29.339,-13.17 29.339,-30.35 v -133.68 c 0,-33.34 -4.793,-35.34 -32.332,-37.62 l -0.039,-8.8 c 3.739,0 72.16,-0.12 72.16,-0.12 v 8.77 c -28.582,2.98 -30.281,6.08 -30.281,23.9 v 148.87 h 0.692 l 143.23,-181.53 h 13.93 v 187.12 c 0,20.48 4.078,21.13 27.551,23.44 z m 127.027,-224.26 c 44.89,1.06 66.36,17.06 87.86,17.56 1.3,20.11 2.59,40.6 7.17,60.17 l -8.82,0.79 c -8.09,-37.45 -28.78,-69.1 -82.8,-70.39 -63.848,-1.55 -91.539,50.77 -92.937,101.98 -1.422,52.6 17.058,111.34 84.207,113.01 50.71,1.18 80.57,-22.23 88.72,-67.6 l 8.77,0.21 c -0.65,11.06 -1.7,21.75 -1.96,32.8 -0.33,10.71 -0.23,21.8 0.18,32.53 l -6.99,1.14 c -3.16,-2.73 -6.4,-5.5 -11.48,-5.62 -19.71,-0.47 -30.74,15.67 -84.73,14.35 -66.768,-1.61 -119.397,-54.53 -117.608,-120.14 1.641,-60.63 49.058,-112.76 130.418,-110.79 m 1954.22,204.88 V 1712.9 c 0,-8.8 -15.66,-10.07 -35.91,-10.72 v -8.82 h 186.72 l 4.61,62.89 h -11.68 c -8.17,-40.4 -18.45,-51.78 -43.35,-51.78 h -44.33 c -13.5,0 -20.55,5.84 -20.55,16.92 v 80.2 h 24.13 c 29.47,0 38.35,-0.14 38.35,-33.05 h 12.46 c 0,10.76 -0.35,18.69 -0.35,25.53 0,21.84 1.16,39.54 1.9,53.52 h -12.46 c -4.26,-37.45 -10.43,-36.9 -43.79,-36.9 h -20.24 v 89.98 h 46.47 c 35.86,0 52.04,-8.77 53.6,-43.36 h 9.38 c 0,15.99 -0.92,56.65 -0.92,56.65 0,0 -163.69,-2.68 -176.03,-2.28 0.29,-2.36 0.65,-5.1 1.05,-8 15.73,-0.95 30.94,-1.14 30.94,-11.46 M 2450.6,1697.9 c -49.74,0 -79.54,38.43 -79.54,104.63 0,66.21 29.8,104.68 79.54,104.68 50.07,0 79.92,-38.47 79.92,-104.68 0,-66.2 -29.85,-104.63 -79.92,-104.63 m -432.44,115.09 h -15.99 v 90.95 h 30.57 c 30.86,0 54.33,-14.01 54.33,-43.68 0,-35.22 -30.9,-47.27 -68.91,-47.27 m -230.24,-25.86 c -2.12,0 -3.18,1.29 -3.18,2.93 0,2.27 0.73,4.87 1.77,7.51 l 26.61,68.44 h 0.74 l 30.91,-79.84 z m 1031.4,113.47 c 4.98,0.06 14.08,0.07 20.02,0.07 v -186.7 c 0,-8.79 -15.66,-11.08 -36.25,-11.74 v -8.87 h 107.44 v 8.87 c -20.56,0.66 -36.22,2.95 -36.22,11.74 v 186.7 c 69.37,0 72.45,-11.07 78.5,-46.62 h 9.93 c 0,15.67 -6.14,53.05 -6.14,57.57 -35.18,0 -60.83,-1.83 -95.98,-1.83 h -204.75 c -35.17,0 -60.85,1.83 -96.01,1.83 0,-3.97 -4.77,-33.27 -5.93,-50.96 -19.09,31.41 -54.37,54.38 -103.33,54.38 -76.01,0 -119.34,-55.76 -119.34,-112.51 0,-14.12 2.69,-28.18 7.91,-41.34 h -7.16 c -10.66,-49.27 -15.62,-56.72 -56.46,-56.72 h -32.28 c -12.74,0 -19.5,6.16 -19.5,17.53 v 170.22 c 0,8.78 15.43,9.11 37.63,11.72 v 7.83 h -107.26 v -7.83 c 18.73,-3.04 34.07,-2.94 34.07,-11.72 v -170.64 c 0,-13.41 -10.8,-18.97 -33.21,-18.97 -20.14,0.09 -33.14,5.63 -34.58,28.55 -3.55,56.72 -18.81,70.75 -58.93,78.87 v 1.66 c 29.12,5.22 54.32,20.52 54.32,51.18 0,29.97 -23.78,48.9 -65.7,48.9 -20.6,0 -102.63,-0.68 -117.51,0.95 v -8.78 c 18.42,-3 34.07,-2.94 34.07,-11.72 v -175.73 c 0,-11.51 -9.27,-14.55 -28,-13.98 -18.72,0.59 -25.41,4 -30.34,16.49 l -79.53,196.55 h -7.76 l -80.94,-195.92 c -3.91,-10.12 -14.85,-17.33 -34.76,-17.33 -17.22,0 -25.02,2.17 -25.02,14.19 v 175.73 c 0,8.78 15.59,11.05 33.7,11.72 v 7.83 h -101.07 v -7.83 c 18.47,-0.67 34.1,-2.94 34.1,-11.72 v -81.2 h -111.87 v 81.2 c 0,8.78 15.61,11.05 34.44,11.72 v 7.83 h -100.5 v -7.83 c 17.03,-0.67 32.64,-2.94 32.64,-11.72 v -177.98 c 0,-8.77 -15.61,-11.3 -35.15,-11.94 v -8.94 h 102.64 v 8.94 c -18.46,0.64 -34.07,3.17 -34.07,11.94 v 88.96 h 111.87 v -90.3 c 0,-8.8 -15.63,-9.94 -34.82,-10.58 v -8.96 c 0,0 169.66,-0.18 169.88,0.05 0.17,0.3 -0.22,8.94 -0.22,8.94 -27.54,1.19 -28.04,5.87 -28.04,9.8 0,2.29 0.68,5.21 2.12,8.79 l 19.91,50.53 c 1.39,3.58 4.27,5.89 14.17,5.89 h 57.92 l 21.99,-59.05 c 2.11,-5.48 2.11,-7.13 2.11,-8.44 0,-5.22 -13.14,-6.85 -27.3,-7.52 v -8.94 l 192.21,0.02 v 9.06 c -21.46,0.45 -34.81,2.2 -34.81,13.74 v 88.92 h 22.04 c 39.39,0 59.31,-5.85 59.31,-57.68 0,-38.79 11.36,-54.11 47.56,-54.11 h 209.06 c 0,0 2.56,37.13 3.94,57.19 18.05,-34.49 54.66,-60.44 106.52,-60.44 76.35,0 119.67,55.71 119.67,112.42 0,17.84 -4.29,35.58 -12.54,51.52 h 5.94 c 6.07,35.55 9.14,46.62 78.46,46.62 v -186.7 c 0,-8.79 -15.59,-11.08 -36.18,-11.74 v -8.87 h 106.89 v 8.87 c -20.57,0.66 -36.22,2.95 -36.22,11.74 v 186.7 c 7.13,0 17.7,-0.01 23.49,-0.09 50.71,-0.75 49.6,-6.04 55.02,-37.93 h 5.75 v 0.32 c 5.46,32.19 5.14,37.06 58.44,37.63 m -1371.66,8.94 c -3.16,-2.73 -6.41,-5.5 -11.49,-5.62 -19.7,-0.47 -30.72,15.67 -84.73,14.35 -66.74,-1.61 -119.38,-54.53 -117.61,-120.14 1.65,-60.63 49.06,-112.76 130.43,-110.79 44.9,1.06 66.36,17.06 87.87,17.56 1.3,20.11 2.59,40.6 7.17,60.17 l -8.81,0.79 c -8.11,-37.45 -28.8,-69.1 -82.81,-70.39 -63.86,-1.55 -91.56,50.77 -92.96,101.98 -1.41,52.6 17.08,111.34 84.23,113.01 50.7,1.18 80.57,-22.23 88.71,-67.6 l 8.77,0.21 c -0.65,11.06 -1.7,21.75 -1.98,32.8 -0.29,10.71 -0.2,21.8 0.21,32.53 z m 357.44,-458.05 v 73.31 l -1.6,1.36 -30.81,-4.66 v -6.2 l 8,-0.98 c 4.2,-0.58 5.4,-1.55 5.4,-8.14 v -54.69 c 0,-8.73 -0.6,-9.31 -14.4,-10.09 v -6.79 h 47.61 v 6.79 c -13.6,0.97 -14.2,1.36 -14.2,10.09 m 2.8,100.85 c 0.2,7.17 -5,12.6 -12.4,12.6 h -0.2 c -7.61,0 -12.61,-5.43 -12.61,-12.6 0,-6.99 5,-12.03 12.61,-12.03 7.6,0 12.6,5.04 12.6,12.03 m -50.59,-108.62 c -6.4,0 -12.2,4.27 -12.2,18.04 v 53.15 h 24.21 v 9.11 h -24.21 v 22.89 h -6.6 l -11.81,-22.89 h -14.6 v -9.11 h 13.8 v -61.49 c 0,-18.42 14.61,-21.13 21.61,-21.13 9.8,0 17,3.88 23.8,7.95 l -1.79,5.82 c -4.41,-1.75 -7.81,-2.34 -12.21,-2.34 m -283.57,7.57 v 45.77 c 0,18.24 -10.6,29.28 -28.8,29.28 -15.81,0 -28.01,-10.86 -32.61,-13.57 -4.6,7.96 -11.4,13.57 -25.01,13.57 -14.6,0 -27.2,-9.5 -32.6,-13.57 l -1.61,13.39 -30.8,-4.66 v -6.2 l 7.6,-0.98 c 4.6,-0.58 5.8,-1.55 5.8,-7.75 v -55.28 c 0,-8.92 -1,-8.92 -14.2,-9.89 v -6.79 h 46.81 v 6.79 c -12.6,0.97 -13.6,0.78 -13.6,9.89 v 40.15 c 0,4.27 0.2,6.79 1.4,9.31 3.6,7.94 11.4,14.16 21.8,14.16 16.81,0 17.21,-12.81 17.21,-22.5 v -41.12 c 0,-9.11 -0.6,-8.92 -13.61,-9.89 v -6.79 h 46.41 v 6.79 c -13,0.97 -13.6,0.78 -13.6,9.89 v 39.95 c 0,3.3 -0.2,6.02 0.6,9.11 1.8,7.96 10,14.36 21.2,14.56 11.4,0.19 18.61,-6.99 18.61,-22.5 v -41.12 c 0,-9.11 -0.81,-8.92 -13.81,-9.89 v -6.79 h 47.01 v 6.79 c -13.6,0.97 -14.2,0.97 -14.2,9.89 m -208.02,-11.05 c -16.8,0 -24.81,14.35 -24.81,38.79 v 0.19 c 0,24.83 8.01,39.17 24.81,39.17 16.8,0 24.8,-14.15 24.8,-39.17 0,-24.63 -8,-38.98 -24.8,-38.98 m 0.2,86.1 h -0.2 c -30.41,0 -45.81,-17.45 -45.81,-47.12 0,-29.48 15.4,-46.93 45.81,-46.93 30.6,0 45.81,17.45 45.81,46.93 0,29.67 -15.21,47.12 -45.61,47.12 m 1721.59,-75.05 v 45.77 c 0,18.24 -10.6,29.28 -28.81,29.28 -15.8,0 -28,-10.86 -32.61,-13.57 -4.6,7.96 -11.39,13.57 -25,13.57 -14.6,0 -27.2,-9.5 -32.6,-13.57 l -1.61,13.39 -30.81,-4.66 v -6.2 l 7.61,-0.98 c 4.6,-0.58 5.8,-1.55 5.8,-7.75 v -55.28 c 0,-8.92 -0.99,-8.92 -14.2,-9.89 v -6.79 h 46.81 v 6.79 c -12.61,0.97 -13.6,0.78 -13.6,9.89 v 40.15 c 0,4.27 0.19,6.79 1.39,9.31 3.61,7.94 11.41,14.16 21.81,14.16 16.81,0 17.21,-12.81 17.21,-22.5 v -41.12 c 0,-9.11 -0.61,-8.92 -13.61,-9.89 v -6.79 h 46.41 v 6.79 c -13,0.97 -13.6,0.78 -13.6,9.89 v 39.95 c 0,3.3 -0.2,6.02 0.6,9.11 1.8,7.96 10,14.36 21.2,14.56 11.41,0.19 18.61,-6.99 18.61,-22.5 v -41.12 c 0,-9.11 -0.81,-8.92 -13.8,-9.89 v -6.79 h 47.01 v 6.79 c -13.61,0.97 -14.21,0.97 -14.21,9.89 m -280.4,-11.05 c -16.81,0 -24.82,14.35 -24.82,38.79 v 0.19 c 0,24.83 8.01,39.17 24.82,39.17 16.8,0 24.8,-14.15 24.8,-39.17 0,-24.63 -8,-38.98 -24.8,-38.98 m 0.19,86.1 h -0.19 c -30.41,0 -45.81,-17.45 -45.81,-47.12 0,-29.48 15.4,-46.93 45.81,-46.93 30.6,0 45.8,17.45 45.8,46.93 0,29.67 -15.2,47.12 -45.61,47.12 m -1162.58,-86.1 c -9.6,0 -17,4.46 -19.8,12.8 -1.2,3.1 -1.2,6.79 -1.2,10.86 v 27.93 c 0,4.26 0.8,6.79 2.2,10.08 4.2,8.14 12.2,12.8 22,12.8 7.41,0 23.41,-3.5 23.41,-34.72 0,-26.37 -8.2,-39.75 -26.61,-39.75 m 10.61,86.1 c -13.41,0 -24.21,-8.52 -31.61,-13.38 l -2.6,13.2 -29.81,-4.66 v -6.2 l 7.81,-0.98 c 4.19,-0.58 5.4,-1.55 5.4,-8.14 v -96.59 c 0,-8.91 -1,-9.11 -13.81,-10.08 v -6.79 h 49.61 v 6.79 c -15.4,0.97 -16.6,1.17 -16.6,10.08 v 26.58 c 3.8,-1.95 12.6,-3.88 20.8,-3.88 25.61,0 47.81,10.86 47.81,48.87 0,14.55 -4.4,45.18 -37,45.18 m 873.57,27.55 c 16.4,-0.98 16.8,-0.98 16.8,-11.64 v -89.21 c 0,-10.28 -0.6,-10.48 -16.8,-11.64 v -6.79 h 54.41 v 6.79 c -16.41,1.16 -17,1.36 -17,11.64 v 89.21 c 0,10.47 0.59,10.66 17,11.64 v 6.79 h -54.41 z m -77.15,-87.67 c 0,-3.68 0,-6.59 -1.4,-9.69 -3.6,-8.92 -11.41,-12.81 -20.6,-12.81 -17.01,0 -25.61,14.95 -25.61,36.08 0,23.47 8.6,38.59 26.81,38.59 8.8,0 15.99,-4.07 19.2,-11.43 1.39,-2.91 1.6,-5.63 1.6,-10.48 z m 19.2,-14.35 v 116.76 l -1.6,1.16 -31.21,-5.04 v -6.21 l 8,-0.77 c 4.61,-0.2 5.61,-1.36 5.61,-7.77 v -27.92 c -5,2.52 -12,4.26 -20.4,4.26 -15.01,0 -27.01,-5.04 -34.82,-12.79 -8.4,-7.95 -13.4,-20.18 -13.4,-36.08 0,-26.57 13.21,-45.18 38.81,-45.18 9.81,0 19.6,4.07 29.81,11.82 v -9.5 h 33.6 v 7.18 c -13.6,0.77 -14.4,0.97 -14.4,10.08 m 213.17,-0.38 v 45.95 c 0,18.24 -10.6,28.9 -28.01,28.9 -13.81,0 -22.4,-6.2 -34.01,-13.57 l -2.6,13.39 -28.81,-4.66 v -6.2 l 6.81,-0.98 c 4.4,-0.58 5.8,-1.55 5.8,-7.75 v -55.28 c 0,-8.73 -0.61,-8.92 -14.2,-9.89 v -6.79 h 47.21 v 6.79 c -13.01,0.97 -14.01,1.16 -14.01,9.89 v 40.34 c 0,4.46 0.2,6.99 1.8,9.89 4,7.37 12,13.39 21.81,13.39 12.61,0 19.21,-6.99 19.21,-22.5 v -41.12 c 0,-8.92 -0.8,-8.92 -14.01,-9.89 v -6.79 h 47.21 v 6.79 c -13.4,0.97 -14.2,1.16 -14.2,10.09 m 59.39,110.54 c 3.79,0 5.59,-0.97 10.8,-11.25 0.99,-1.94 2.4,-3.3 5.4,-3.3 4,0 10.2,3.69 10.2,9.31 0,5.43 -4.8,13 -20.6,13 -24.01,0 -32.02,-18.81 -32.02,-39.56 v -6.21 h -13.39 v -8.54 h 13.39 v -63.61 c 0,-9.11 -0.8,-9.5 -14.19,-10.47 v -6.79 h 49.01 v 6.79 c -13.81,1.16 -15.81,1.16 -15.81,10.28 v 63.8 h 20.81 v 8.54 h -20.81 c -0.2,7.17 -0.6,13.77 -0.8,20.17 -0.6,16.1 5,17.84 8.01,17.84 m -515.38,-100.85 c 0,-14.35 -11.21,-17.84 -18.4,-17.84 -11.01,0 -16.61,6.79 -16.61,17.26 0,8.53 4,12.8 14.01,16.68 7.4,2.71 16.8,6.01 21,8.53 z m 25,-16.87 c -3.39,0.77 -6.6,3.88 -6.6,15.32 v 41.51 c 0,10.86 -4.4,25.2 -33.2,25.2 -21.81,0 -37.21,-10.86 -37.21,-21.33 0,-6.01 6.6,-8.92 10.6,-8.92 4,0 5.8,2.33 7,5.82 5,13.39 11.6,16.29 18.2,16.29 8.41,0 16.21,-3.68 16.21,-18.04 v -5.04 c -4.8,-4.84 -23,-9.5 -37.81,-13.96 -13.4,-4.08 -17.61,-14.35 -17.61,-23.08 0,-13.77 9.81,-25.79 27.61,-25.79 11.6,0 21.61,6.59 27.81,10.27 2.6,-6.98 6,-10.27 12.41,-10.27 7,0 16.2,2.13 20.99,5.23 l -0.99,6.79 c -2.6,-0.39 -5.61,-0.39 -7.41,0 m 107.21,7.18 v 45.95 c 0,18.24 -10.59,28.9 -28,28.9 -13.81,0 -22.41,-6.2 -34.01,-13.57 l -2.6,13.39 -28.81,-4.66 v -6.2 l 6.81,-0.98 c 4.39,-0.58 5.8,-1.55 5.8,-7.75 v -55.28 c 0,-8.73 -0.6,-8.92 -14.21,-9.89 v -6.79 h 47.22 v 6.79 c -13.01,0.97 -14.01,1.16 -14.01,9.89 v 40.34 c 0,4.46 0.2,6.99 1.8,9.89 4.01,7.37 12,13.39 21.81,13.39 12.6,0 19.2,-6.99 19.2,-22.5 v -41.12 c 0,-8.92 -0.8,-8.92 -14.01,-9.89 v -6.79 h 47.22 v 6.79 c -13.41,0.97 -14.21,1.16 -14.21,10.09 m 560.75,74.85 c -6.99,0 -12.79,-4.26 -25,-14.93 l -2.19,14.75 -30.21,-4.66 v -6.2 l 7.79,-0.98 c 4.61,-0.58 5.61,-1.36 5.61,-8.14 v -54.69 c 0,-9.12 -1.2,-9.12 -14.4,-10.09 v -6.79 h 51.61 v 6.79 c -17.01,0.78 -18.21,0.97 -18.21,10.09 v 40.53 c 0,13.58 6.8,18.62 10.8,18.62 2.41,0 6.01,-0.97 11.21,-4.27 1.8,-0.97 3.2,-0.97 4.19,-0.97 4.81,0 9.01,5.81 9.01,11.63 0,4.47 -2.8,9.31 -10.21,9.31 m -902.16,-74.85 v 45.95 c 0,18.24 -10.61,28.9 -28.01,28.9 -13.81,0 -22.4,-6.2 -34.02,-13.57 l -2.59,13.39 -28.81,-4.66 v -6.2 l 6.8,-0.98 c 4.41,-0.58 5.8,-1.55 5.8,-7.75 v -55.28 c 0,-8.73 -0.6,-8.92 -14.19,-9.89 v -6.79 h 47.2 v 6.79 c -13.01,0.97 -14,1.16 -14,9.89 v 40.34 c 0,4.46 0.19,6.99 1.8,9.89 4,7.37 12,13.39 21.8,13.39 12.61,0 19.21,-6.99 19.21,-22.5 v -41.12 c 0,-8.92 -0.8,-8.92 -14,-9.89 v -6.79 h 47.2 v 6.79 c -13.39,0.97 -14.19,1.16 -14.19,10.09 m 60.98,23.07 c -10.01,0 -19,5.82 -19,21.34 0,17.45 10,22.49 19,22.49 h 0.2 c 8.2,0 18.41,-4.84 18.41,-22.49 0,-14.94 -8.61,-21.34 -18.61,-21.34 m -17.4,-43.05 c 3.8,2.91 8.19,4.26 19.4,4.26 18.8,0 28.4,-4.07 28.4,-17.45 0,-13.57 -13.2,-19.98 -25.6,-19.98 h -0.2 c -17,0 -28.01,8.73 -28.01,20.95 0,5.04 2.01,9.5 6.01,12.22 m 43.01,89.02 c -5.61,3.49 -16.41,5.81 -24.81,5.81 -29.61,0 -39.81,-16.09 -39.81,-30.25 0,-17.26 11.2,-24.05 19.4,-26.57 v -0.39 c -10.4,-3.87 -16.39,-8.92 -16.39,-16.28 0,-6.99 7.99,-13.97 16.39,-14.56 v -0.38 c -8.2,-2.33 -21.8,-7.17 -21.8,-20.37 0,-18.03 19,-26.95 41.41,-26.95 12.6,0 22.6,2.13 31.6,7.18 8.81,5.23 15.81,15.12 15.81,27.34 0,19.59 -14,26.57 -34.01,26.57 h -17.2 c -13.2,0 -15.01,4.27 -15.01,7.37 0,5.23 6.2,7.37 8.8,8.14 3.61,-0.38 7.8,-0.58 9.81,-0.58 18,0 38.61,6.79 38.61,29.29 0,7.37 -2.8,13.96 -5.4,16.67 h 14.4 l 3.8,12.61 -1.8,1.75 z m -310.98,-69.24 v 72.92 l -1.61,1.36 -30.6,-3.3 v -6.01 l 7.4,-1.16 c 4.4,-0.58 5.6,-1.36 5.6,-7.96 v -39.17 c 0,-4.85 -0.4,-8.92 -1.4,-10.86 -4.2,-8.14 -12.8,-13.57 -22.41,-13.57 -11,0 -18.8,6.59 -18.8,20.94 v 59.73 l -1.6,1.36 -30.81,-3.49 v -6.01 l 8,-1.16 c 4.2,-0.39 5.41,-1.56 5.41,-7.77 v -47.51 c 0,-20.95 13.2,-27.34 27,-27.34 16.2,0 29.21,10.27 34.41,12.41 l 2,-10.09 h 31.8 v 6.79 c -13,0.78 -14.39,0.97 -14.39,9.89 m 1646.37,37.24 c -7,2.32 -20,7.37 -20,16.29 0,9.11 7.4,13.57 16.6,13.57 12.8,0 18.41,-10.08 19.21,-19.97 h 6.99 v 22.11 c -6.6,4.07 -16.6,5.81 -24.6,5.81 -20.8,0 -34.8,-9.11 -34.8,-26.37 0,-16.87 10.4,-22.5 27,-28.12 11.6,-4.07 21.2,-8.73 21.2,-17.84 0,-8.34 -7.4,-13.77 -16.6,-13.77 -15,0 -22.4,9.3 -26.41,24.82 h -6.8 l 1.8,-23.27 c 7.4,-7.18 19.61,-9.5 30.61,-9.5 22.4,0 35.01,11.63 35.01,27.34 0,16.1 -8.8,22.11 -29.21,28.9 M 311.352,1439.46 c -37.809,0 -44.61,37.05 -44.61,57.98 0,28.13 10.598,58.38 45.41,58.38 19,0 30.598,-7.55 34.399,-28.5 h 7.199 v 29.28 c -9.398,4.65 -24.398,7.37 -39.809,7.37 -23,0 -42.199,-6.59 -53.398,-19.01 -10.801,-11.82 -17.211,-27.93 -17.211,-48.29 0,-44.22 24.609,-65.16 69.82,-65.16 14.797,0 31.61,2.91 41.2,8.34 l 2.211,31.41 h -7.411 c -5.203,-19 -14.402,-31.8 -37.8,-31.8 m 2950.358,3.69 c -21.41,0 -27.21,20.36 -27.21,38.59 0,26.57 11,36.65 23.2,36.65 7.2,0 13,-4.46 17.41,-14.34 1.2,-3.11 2.4,-5.05 6,-5.05 4.2,0 12.2,2.33 12.2,9.5 0,8.73 -13.8,17.84 -33.41,17.84 -34,0 -46.4,-23.07 -46.4,-48.09 0,-30.45 16,-45.96 44,-45.96 13.41,0 31.61,6.39 37.01,26.38 l -7.2,3.29 c -5.81,-12.03 -12,-18.81 -25.6,-18.81 m -2630.37,47.32 h -34.41 c 0,7.76 3.011,27.92 21.812,27.92 16.598,0 18.801,-16.29 18.801,-23.27 0,-3.1 -1.402,-4.65 -6.203,-4.65 m 27.211,-1.17 c 0,11.25 -4.41,37.04 -39.008,37.04 -29.613,0 -43.813,-20.36 -43.813,-47.7 0,-28.51 12.403,-46.35 44.012,-46.35 21,0 32.008,10.47 37.61,25.2 l -7.2,3.89 c -5.8,-11.05 -13.011,-18.43 -26.011,-18.43 -23,0 -27.809,19.97 -27.411,38.79 h 54.02 c 3.391,0 7.801,0.77 7.801,7.56 m -156.219,-37.43 v 116.56 l -1.789,1.36 -30.813,-5.04 v -6.02 l 7.602,-0.58 c 4.801,-0.58 5.801,-1.36 5.801,-8.15 v -98.13 c 0,-9.11 -0.602,-9.5 -14.203,-10.47 v -6.79 h 47.613 v 6.79 c -13.613,0.97 -14.211,1.36 -14.211,10.47 m -87.789,-11.63 c -16.801,0 -24.801,14.35 -24.801,38.79 v 0.19 c 0,24.83 8,39.17 24.801,39.17 16.809,0 24.809,-14.15 24.809,-39.17 0,-24.63 -8,-38.98 -24.809,-38.98 m 0.199,86.1 h -0.199 c -30.402,0 -45.813,-17.45 -45.813,-47.12 0,-29.48 15.411,-46.93 45.813,-46.93 30.609,0 45.809,17.45 45.809,46.93 0,29.67 -15.2,47.12 -45.61,47.12 m 2766.348,13.97 c 7.6,0 12.6,5.04 12.6,12.03 0.21,7.17 -5,12.6 -12.4,12.6 h -0.2 c -7.6,0 -12.6,-5.43 -12.6,-12.6 0,-6.99 5,-12.03 12.6,-12.03 M 553.133,1451.87 v 116.56 l -1.801,1.36 -30.801,-5.04 v -6.02 l 7.602,-0.58 c 4.797,-0.58 5.797,-1.36 5.797,-8.15 v -98.13 c 0,-9.11 -0.598,-9.5 -14.2,-10.47 v -6.79 h 47.61 v 6.79 c -13.61,0.97 -14.207,1.36 -14.207,10.47 m 389.988,-11.63 c -16.801,0 -24.808,14.35 -24.808,38.79 v 0.19 c 0,24.83 8.007,39.17 24.808,39.17 16.809,0 24.809,-14.15 24.809,-39.17 0,-24.63 -8,-38.98 -24.809,-38.98 m 0.199,86.1 h -0.199 c -30.41,0 -45.808,-17.45 -45.808,-47.12 0,-29.48 15.398,-46.93 45.808,-46.93 30.609,0 45.809,17.45 45.809,46.93 0,29.67 -15.2,47.12 -45.61,47.12 m 2120.37,-65.16 c 0,-14.35 -11.2,-17.84 -18.41,-17.84 -10.99,0 -16.6,6.79 -16.6,17.26 0,8.53 4.01,12.8 14.01,16.68 7.4,2.71 16.8,6.01 21,8.53 z m 25,-16.87 c -3.4,0.77 -6.6,3.88 -6.6,15.32 v 41.51 c 0,10.86 -4.4,25.2 -33.2,25.2 -21.81,0 -37.21,-10.86 -37.21,-21.33 0,-6.01 6.6,-8.92 10.6,-8.92 4,0 5.81,2.33 7.01,5.82 5,13.39 11.6,16.29 18.2,16.29 8.4,0 16.2,-3.68 16.2,-18.04 v -5.04 c -4.8,-4.84 -23.01,-9.5 -37.81,-13.96 -13.4,-4.08 -17.6,-14.35 -17.6,-23.08 0,-13.77 9.81,-25.79 27.61,-25.79 11.6,0 21.6,6.59 27.8,10.27 2.6,-6.98 6,-10.27 12.4,-10.27 7.01,0 16.2,2.13 21.01,5.23 l -1.01,6.79 c -2.59,-0.39 -5.59,-0.39 -7.4,0 m -2043.57,125.48 c -24.01,0 -32.01,-18.81 -32.01,-39.56 v -6.21 h -13.399 v -8.54 h 13.399 v -63.61 c 0,-9.11 -0.8,-9.5 -14.2,-10.47 v -6.79 h 49.01 v 6.79 c -13.8,1.16 -15.81,1.16 -15.81,10.28 v 63.8 h 20.81 v 8.54 h -20.81 c -0.2,7.17 -0.6,13.77 -0.8,20.17 -0.59,16.1 5.01,17.84 8.01,17.84 3.8,0 5.6,-0.97 10.8,-11.25 1,-1.94 2.4,-3.3 5.4,-3.3 4,0 10.2,3.69 10.2,9.31 0,5.43 -4.8,13 -20.6,13 m 2097.97,-126.07 c -6.4,0 -12.2,4.27 -12.2,18.04 v 53.15 h 24.2 v 9.11 h -24.2 v 22.89 h -6.6 l -11.81,-22.89 h -14.6 v -9.11 h 13.8 v -61.49 c 0,-18.42 14.6,-21.13 21.6,-21.13 9.81,0 17.01,3.88 23.81,7.95 l -1.8,5.82 c -4.4,-1.75 -7.8,-2.34 -12.2,-2.34 m -2433.36,30.84 c -10,0 -19,5.82 -19,21.34 0,17.45 10,22.49 19,22.49 h 0.2 c 8.203,0 18.402,-4.84 18.402,-22.49 0,-14.94 -8.602,-21.34 -18.602,-21.34 m -17.398,-43.05 c 3.801,2.91 8.199,4.26 19.398,4.26 18.813,0 28.411,-4.07 28.411,-17.45 0,-13.57 -13.211,-19.98 -25.61,-19.98 h -0.199 c -17,0 -28,8.73 -28,20.95 0,5.04 1.988,9.5 6,12.22 m 43.008,89.02 c -5.598,3.49 -16.41,5.81 -24.809,5.81 -29.609,0 -39.808,-16.09 -39.808,-30.25 0,-17.26 11.199,-24.05 19.41,-26.57 v -0.39 c -10.403,-3.87 -16.403,-8.92 -16.403,-16.28 0,-6.99 7.993,-13.97 16.403,-14.56 v -0.38 c -8.211,-2.33 -21.813,-7.17 -21.813,-20.37 0,-18.03 19,-26.95 41.41,-26.95 12.602,0 22.602,2.13 31.61,7.18 8.801,5.23 15.801,15.12 15.801,27.34 0,19.59 -14,26.57 -34.008,26.57 H 705.93 c -13.2,0 -15,4.27 -15,7.37 0,5.23 6.203,7.37 8.8,8.14 3.602,-0.38 7.801,-0.58 9.801,-0.58 18,0 38.61,6.79 38.61,29.29 0,7.37 -2.801,13.96 -5.399,16.67 h 14.399 l 3.8,12.61 -1.8,1.75 z m 427.18,-81.07 c -37.8,0 -44.61,37.05 -44.61,57.98 0,28.13 10.61,58.38 45.41,58.38 19.01,0 30.61,-7.55 34.41,-28.5 h 7.2 v 29.28 c -9.4,4.65 -24.4,7.37 -39.81,7.37 -23,0 -42.21,-6.59 -53.41,-19.01 -10.8,-11.82 -17.2,-27.93 -17.2,-48.29 0,-44.22 24.61,-65.16 69.81,-65.16 14.81,0 31.61,2.91 41.21,8.34 l 2.2,31.41 h -7.4 c -5.2,-19 -14.4,-31.8 -37.81,-31.8 m 2028.37,12.03 v 73.31 l -1.59,1.36 -30.81,-4.66 v -6.2 l 7.99,-0.98 c 4.21,-0.58 5.4,-1.55 5.4,-8.14 v -54.69 c 0,-8.73 -0.59,-9.31 -14.39,-10.09 v -6.79 h 47.61 v 6.79 c -13.61,0.97 -14.21,1.36 -14.21,10.09 m -2369.757,38.98 h -34.41 c 0,7.76 3,27.92 21.797,27.92 16.613,0 18.812,-16.29 18.812,-23.27 0,-3.1 -1.402,-4.65 -6.199,-4.65 m 27.199,-1.17 c 0,11.25 -4.402,37.04 -39,37.04 -29.609,0 -43.812,-20.36 -43.812,-47.7 0,-28.51 12.402,-46.35 44.011,-46.35 21,0 32,10.47 37.602,25.2 l -7.203,3.89 c -5.797,-11.05 -13,-18.43 -26,-18.43 -23.008,0 -27.809,19.97 -27.41,38.79 h 54.011 c 3.399,0 7.801,0.77 7.801,7.56" /></g></g></svg>